<svg xmlns="http://www.w3.org/2000/svg" xmlns:xlink="http://www.w3.org/1999/xlink" version="1.1" x="0px" y="0px" viewBox="0 0 100 125" enable-background="new 0 0 100 100" xml:space="preserve"><path fill="#000000" d="M6.096,35.975l28.418-14.827c0.399-0.208,0.399-0.779,0-0.987L6.096,5.334  C5.725,5.141,5.282,5.41,5.282,5.828v29.654C5.282,35.899,5.725,36.168,6.096,35.975z M88.5,74.774H11.159  c-3.438,0-6.226,2.787-6.226,6.226s2.787,6.226,6.226,6.226H88.5c3.438,0,6.226-2.787,6.226-6.226S91.938,74.774,88.5,74.774z   M88.5,44.645H11.159c-3.438,0-6.226,2.787-6.226,6.226s2.787,6.226,6.226,6.226H88.5c3.438,0,6.226-2.787,6.226-6.226  S91.938,44.645,88.5,44.645z M49.536,26.966H88.5c3.438,0,6.226-2.787,6.226-6.226s-2.787-6.226-6.226-6.226H49.536  c-3.438,0-6.226,2.787-6.226,6.226S46.098,26.966,49.536,26.966z"/><text x="0" y="115" fill="#000000" font-size="5px" font-weight="bold" font-family="'Helvetica Neue', Helvetica, Arial-Unicode, Arial, Sans-serif">Created by No More Heroes</text><text x="0" y="120" fill="#000000" font-size="5px" font-weight="bold" font-family="'Helvetica Neue', Helvetica, Arial-Unicode, Arial, Sans-serif">from the Noun Project</text></svg>